<svg xmlns="http://www.w3.org/2000/svg" viewBox="0 0 1200 630" width="1200" height="630" role="img" aria-label="หอมฉลุย — รีวิวหอม จริงใจ เลือกซื้อได้อย่างมั่นใจ">
  <title>หอมฉลุย — OG banner (export to og-logo-banner.png)</title>
  <rect width="1200" height="630" fill="#FFF7EE"/>
  <rect x="0" y="0" width="1200" height="10" fill="#D4AF37"/>
  <rect x="0" y="620" width="1200" height="10" fill="#D4AF37"/>
  <g transform="translate(150 175) scale(2.9)">
    <path d="M0 0 C 6 -5 6 -13 0 -18 C -6 -13 -6 -5 0 0 Z" fill="#D8C6E8" transform="translate(40 47) rotate(-38)"/>
    <path d="M0 0 C 6 -5 6 -13 0 -18 C -6 -13 -6 -5 0 0 Z" fill="#B7C8A6" transform="translate(57 48) rotate(40)"/>
    <path d="M0 0 C 5 -4 5 -11 0 -15 C -5 -11 -5 -4 0 0 Z" fill="#F2C6D4" transform="translate(46 41) rotate(-12)"/>
    <path d="M0 0 C 5 -4 5 -11 0 -15 C -5 -11 -5 -4 0 0 Z" fill="#F2C6D4" transform="translate(53 42) rotate(18)"/>
    <path d="M48 59 C 40 50 58 45 49.5 37 C 44 31 55 26.5 48.5 18.5 C 44.5 13.5 49.5 10 47 7" fill="none" stroke="#D4AF37" stroke-width="4.2" stroke-linecap="round"/>
    <path d="M0 -7 C 0.6 -2 2 -0.6 7 0 C 2 0.6 0.6 2 0 7 C -0.6 2 -2 0.6 -7 0 C -2 -0.6 -0.6 -2 0 -7 Z" fill="#D4AF37" transform="translate(62 17) scale(0.9)"/>
    <path d="M0 -7 C 0.6 -2 2 -0.6 7 0 C 2 0.6 0.6 2 0 7 C -0.6 2 -2 0.6 -7 0 C -2 -0.6 -0.6 -2 0 -7 Z" fill="#D4AF37" transform="translate(37 30) scale(0.5)"/>
    <rect x="31" y="58" width="34" height="7" rx="3.5" fill="#D4AF37"/>
    <path d="M34 65 L62 65 L58.5 84 C58 87 56 88.5 53 88.5 L43 88.5 C40 88.5 38 87 37.5 84 Z" fill="#D4AF37"/>
    <path d="M42 71 Q48 77 54 71" fill="none" stroke="#8B5E34" stroke-width="2.4" stroke-linecap="round"/>
  </g>
  <text x="470" y="300" font-family="'Noto Sans Thai','Sarabun',sans-serif" font-size="118" font-weight="700" fill="#3B2A1E">หอมฉลุย</text>
  <text x="474" y="356" font-family="'Inter',sans-serif" font-size="30" letter-spacing="12" fill="#D4AF37">HOM CHALUI</text>
  <text x="474" y="410" font-family="'Noto Sans Thai','Sarabun',sans-serif" font-size="30" fill="#6F6258">รีวิวหอม จริงใจ • เลือกซื้อได้อย่างมั่นใจ</text>
  <text x="600" y="560" text-anchor="middle" font-family="'Inter',sans-serif" font-size="22" letter-spacing="6" fill="#B8895B">FRAGRANT • TRUSTWORTHY • CURATED • EASY SHOPPING</text>
  <text x="1140" y="600" text-anchor="end" font-family="'Inter',sans-serif" font-size="18" fill="#9A8D82">Powered by 2T9COME</text>
</svg>
